<?xml version="1.0" encoding="utf-8"?>
<!-- Generator: Adobe Illustrator 16.0.0, SVG Export Plug-In . SVG Version: 6.00 Build 0)  -->
<!DOCTYPE svg PUBLIC "-//W3C//DTD SVG 1.1//EN" "http://www.w3.org/Graphics/SVG/1.1/DTD/svg11.dtd">
<svg version="1.1" id="Layer_1" xmlns="http://www.w3.org/2000/svg" xmlns:xlink="http://www.w3.org/1999/xlink" x="0px" y="0px"
	 width="50px" height="50px" viewBox="0 0 50 50" enable-background="new 0 0 50 50" xml:space="preserve">
<g id="product_logo">
</g>
<g id="guides">
</g>
<g>
	<path fill="#FFFFFF" d="M0.339,0.334v49.333h49.333V0.334H0.339z"/>
	<path fill="#F6EC36" d="M0.339,0.334v49.333h49.333V0.334H0.339z M46.39,20.841c-0.081,1.537-0.57,3.452-1.001,4.731
		c-1.735,5.155-3.746,8.35-8.404,8.35c-1.371,0-3.804-0.364-4.7-2.804l-0.212-0.579l-0.381,0.484
		c-1.457,1.845-3.622,2.91-5.938,2.921c-1.777,0.008-3.205-0.587-4.129-1.723L21.37,31.91l-0.27,0.298
		c-0.987,1.089-2.706,1.714-4.715,1.714c-1.578,0-2.94-0.536-3.837-1.509l-0.244-0.265l-0.254,0.257
		c-0.997,1.006-2.567,1.513-4.542,1.466c-2.396-0.057-3.854-1.394-3.901-3.578C3.536,26.927,6.794,19.844,8.143,17.69
		c0.876-1.438,2.08-2.136,3.682-2.136c1.091,0,1.837,0.228,2.28,0.698c0.403,0.427,0.483,0.788,0.52,1.654l0.046,1.12l0.592-0.953
		c1.43-2.304,3.8-2.622,6.148-2.622c1.633,0,3.058,0.601,3.63,1.53l0.211,0.342l0.306-0.26c1.21-1.029,2.918-1.595,4.808-1.595
		c2.063,0,3.563,0.514,4.458,1.525c0.203,0.23,0.337,0.391,0.524,0.783l0.23,0.482l0.344-0.408c1.309-1.548,3.097-2.333,5.315-2.333
		c1.757,0,3.09,0.467,3.964,1.388C46.295,18.057,46.451,19.682,46.39,20.841z"/>
	<path fill="#D01012" d="M0.339,0.334v49.333h49.333V0.334H0.339z M47.78,22.733c-0.224,1.795-1.437,5.122-2.082,6.451
		c-1.73,3.563-4.041,6.302-8.493,6.302c-2.379,0-4.335-0.759-5.479-2.216c-1.675,1.468-3.749,2.237-5.981,2.237
		c-1.72,0-3.24-0.497-4.399-1.415c-1.279,0.902-3.006,1.404-4.919,1.404c-1.598,0-3.036-0.438-4.162-1.25
		c-1.245,0.826-2.876,1.237-4.792,1.191c-3.187-0.075-5.387-2.097-5.451-5.031c-0.083-3.898,3.2-11.034,4.748-13.504
		c1.157-1.902,2.925-2.926,5.09-2.926c2.35,0,3.203,0.672,3.622,1.526c1.813-1.541,4.217-1.629,5.929-1.629
		c1.89,0,3.075,0.501,4.084,1.305c1.393-0.836,2.99-1.27,4.893-1.27c2.434,0,4.241,0.565,5.501,1.812
		c1.471-1.224,3.312-1.781,5.373-1.781c2.726,0,4.519,0.983,5.571,2.448C48.318,18.453,48.053,20.534,47.78,22.733z"/>
	<path d="M0,0v50h50V0H0z M49.312,0.688v48.625H0.689V0.688H49.312z"/>
	<path d="M47.538,15.004v-0.341h0.231c0.169,0,0.257,0.06,0.257,0.169c0,0.087-0.056,0.172-0.229,0.172H47.538z M48.367,15.71
		l-0.144-0.249c-0.125-0.219-0.16-0.253-0.267-0.291v-0.007c0.21-0.024,0.335-0.159,0.335-0.347c0-0.197-0.125-0.347-0.391-0.347
		h-0.619v1.241h0.256v-0.508h0.047c0.11,0,0.154,0.013,0.204,0.062c0.05,0.051,0.125,0.156,0.168,0.244l0.101,0.203L48.367,15.71
		L48.367,15.71z M47.757,14.124c0.533,0,0.966,0.43,0.966,0.961c0,0.532-0.434,0.964-0.966,0.964c-0.531,0-0.959-0.432-0.959-0.964
		C46.798,14.554,47.226,14.124,47.757,14.124z M47.757,13.887c-0.662,0-1.196,0.535-1.196,1.198s0.534,1.197,1.196,1.197
		c0.664,0,1.199-0.534,1.199-1.197C48.956,14.421,48.421,13.887,47.757,13.887z"/>
	<path d="M41.237,15.17c-2.584,0-4.37,1.024-5.578,2.456c-0.205-0.428-0.359-0.616-0.578-0.863c-0.989-1.118-2.58-1.64-4.715-1.64
		c-2.085,0-3.824,0.651-5.031,1.677c-0.627-1.02-2.121-1.694-3.924-1.694c-2.354,0-4.92,0.333-6.441,2.786
		c-0.037-0.884-0.117-1.351-0.613-1.876c-0.603-0.638-1.579-0.805-2.53-0.805c-1.733,0-3.036,0.757-3.975,2.298
		C6.49,19.683,3.19,26.836,3.264,30.302c0.048,2.237,1.549,3.851,4.237,3.914c2.1,0.05,3.747-0.511,4.794-1.569
		c0.94,1.021,2.375,1.621,4.09,1.621c1.911,0,3.834-0.574,4.971-1.828c0.957,1.176,2.462,1.859,4.398,1.85
		c2.531-0.012,4.754-1.212,6.206-3.052c0.797,2.169,2.817,3.03,5.024,3.03c4.836,0,6.96-3.326,8.73-8.584
		c0.398-1.184,0.931-3.162,1.019-4.823C46.881,18.096,45.711,15.17,41.237,15.17z M9.057,28.391
		c2.502-0.435,3.131,0.471,3.053,1.308c-0.236,2.509-2.537,3.069-4.535,3.022c-1.448-0.035-2.751-0.698-2.788-2.381
		c-0.063-2.942,2.938-9.751,4.352-12.008c0.652-1.071,1.447-1.601,2.715-1.601c1.202,0,1.5,0.617,1.482,1.355
		C13.288,20.059,10.102,26.05,9.057,28.391z M17.205,26.08c-0.166,0.448-0.479,1.386-0.732,2.381
		c0.821-0.206,1.438-0.349,2.492-0.323c1.203,0.03,1.971,0.528,1.971,1.522c0,2.41-2.664,3.118-4.512,3.118
		c-2.029,0-3.811-1.155-3.811-3.374c0-2.602,1.411-6.545,2.734-9.173c1.625-3.227,3.285-3.656,6.145-3.656
		c1.256,0,2.705,0.538,2.705,1.725c0,1.645-1.394,2.272-2.775,2.351c-0.59,0.034-1.498,0.066-2.041,0.028
		c0,0-0.459,0.701-0.948,1.949c2.559-0.361,3.643,0.22,3.211,1.7C21.059,26.327,19.326,26.459,17.205,26.08z M29.788,19.859
		c-0.692,0-1.145,0.438-1.481,0.911c-0.741,1.042-2.348,5.214-2.598,6.929c-0.172,1.174,0.335,1.413,0.89,1.413
		c0.889,0,1.885-0.94,2.226-2.493c0,0-1.692-0.041-1.226-1.542c0.454-1.456,1.313-1.771,2.739-1.83
		c2.809-0.115,2.531,1.959,2.307,3.065c-0.729,3.591-3.286,6.476-6.901,6.476c-2.475,0-4.012-1.369-4.012-3.893
		c0-1.798,0.893-4.622,1.6-6.274c1.506-3.516,3.084-5.978,7.106-5.978c2.413,0,4.316,0.867,4.037,3.128
		c-0.204,1.659-1.035,2.634-2.543,2.752c-0.422,0.032-2.148-0.012-1.576-1.645C30.554,20.308,30.637,19.859,29.788,19.859z
		 M44.978,22.827c-0.425,2.117-1.381,4.622-2.419,6.489c-1.694,3.045-3.752,3.472-5.547,3.451c-1.796-0.021-3.82-0.685-3.836-3.456
		c-0.011-1.99,0.847-4.797,1.576-6.638c1.27-3.336,2.567-6.057,6.669-6.008C46.203,16.722,45.351,20.976,44.978,22.827z
		 M40.92,19.929c-0.41-0.005-0.769,0.075-1.091,0.571c-0.724,0.938-2.839,6.718-2.801,7.871c0.013,0.414,0.242,0.776,0.752,0.776
		c0.585,0.001,0.91-0.404,1.198-0.892c0.665-1.126,2.538-6.236,2.589-7.514C41.583,20.37,41.521,19.936,40.92,19.929z"/>
</g>
</svg>
